<svg id="svg" xmlns="http://www.w3.org/2000/svg" xmlns:xlink="http://www.w3.org/1999/xlink" width="400" height="53.333333333333336" viewBox="0, 0, 400,53.333333333333336"><g id="svgg"><path id="path0" d="M0.000 12.098 L 0.000 24.196 1.375 24.150 C 2.131 24.124,3.003 24.037,3.312 23.955 C 4.019 23.768,4.430 23.671,5.167 23.515 C 6.683 23.195,6.640 23.330,6.712 18.667 C 6.780 14.227,7.023 13.562,8.852 12.806 C 9.077 12.713,9.189 11.742,8.998 11.542 C 8.976 11.519,8.949 11.406,8.937 11.292 C 8.925 11.177,8.728 11.072,8.499 11.058 C 8.270 11.044,7.952 11.025,7.792 11.016 C 7.533 11.002,7.500 10.799,7.500 9.250 L 7.500 7.500 9.965 7.500 C 12.100 7.500,12.517 7.455,13.083 7.167 C 13.443 6.983,13.871 6.833,14.035 6.833 C 14.199 6.833,14.333 6.770,14.333 6.693 C 14.333 6.072,21.256 5.879,22.019 6.479 C 22.238 6.651,22.477 6.783,22.551 6.771 C 22.624 6.759,22.868 6.927,23.092 7.142 L 23.500 7.535 23.495 12.226 C 23.492 14.806,23.420 17.854,23.335 19.000 C 23.236 20.326,23.240 21.949,23.346 23.463 C 23.448 24.930,23.452 25.949,23.357 26.119 C 23.270 26.274,23.264 26.509,23.344 26.656 C 24.149 28.139,24.298 33.700,23.584 35.597 C 23.356 36.204,23.216 36.779,23.275 36.874 C 23.724 37.601,23.457 48.304,22.974 48.934 C 22.451 49.617,22.800 50.729,23.551 50.769 C 24.347 50.811,24.398 50.824,24.279 50.944 C 24.218 51.004,23.858 51.067,23.478 51.083 L 22.787 51.113 22.722 52.223 L 22.657 53.333 27.430 53.333 L 32.203 53.333 32.136 52.762 C 32.100 52.447,32.124 52.223,32.190 52.264 C 32.256 52.305,32.297 52.082,32.280 51.769 C 32.264 51.456,32.194 51.235,32.125 51.277 C 31.906 51.410,31.991 51.152,32.252 50.891 C 32.390 50.753,32.460 50.570,32.408 50.485 C 32.355 50.400,32.429 50.286,32.572 50.231 C 32.715 50.177,32.780 50.046,32.717 49.941 C 32.654 49.836,32.734 49.856,32.894 49.987 C 33.146 50.191,33.179 50.191,33.134 49.987 C 33.106 49.854,33.187 49.772,33.320 49.801 C 33.524 49.845,33.524 49.812,33.320 49.561 C 33.169 49.375,33.159 49.315,33.292 49.395 C 33.406 49.463,33.500 49.440,33.500 49.343 C 33.500 48.922,32.373 49.154,32.261 49.598 C 32.196 49.859,32.067 49.997,31.936 49.947 C 31.817 49.902,31.618 49.927,31.494 50.004 C 30.368 50.700,30.083 49.059,30.083 41.875 C 30.083 38.460,30.039 35.667,29.985 35.667 C 29.450 35.667,29.317 22.195,29.832 20.167 C 29.958 19.671,30.014 17.679,29.996 14.302 L 29.969 9.186 30.568 8.588 C 30.973 8.182,31.167 7.836,31.167 7.517 C 31.167 7.230,31.338 6.874,31.606 6.606 L 32.045 6.167 35.236 6.167 L 38.426 6.167 39.005 6.678 C 39.323 6.960,39.816 7.410,40.101 7.678 C 40.533 8.086,40.759 8.167,41.462 8.167 C 41.981 8.167,42.338 8.247,42.390 8.375 C 42.436 8.490,42.480 8.340,42.487 8.042 L 42.500 7.500 44.250 7.500 L 46.000 7.500 46.018 8.208 C 46.027 8.598,46.055 9.967,46.079 11.250 C 46.113 13.056,46.192 13.753,46.429 14.333 C 46.673 14.931,46.754 15.709,46.826 18.167 L 46.917 21.250 47.500 21.531 C 48.658 22.090,51.047 22.529,52.612 22.471 L 54.083 22.417 54.128 11.208 L 54.173 0.000 27.087 0.000 L 0.000 0.000 0.000 12.098 M2.667 32.266 C 2.667 32.636,2.731 32.667,3.500 32.667 C 4.222 32.667,4.333 32.622,4.333 32.333 C 4.333 32.111,4.222 32.000,4.000 32.000 C 3.817 32.000,3.666 32.094,3.664 32.208 C 3.662 32.351,3.623 32.359,3.539 32.235 C 3.260 31.823,2.667 31.843,2.667 32.266 M8.551 42.738 C 8.716 42.864,8.777 42.993,8.687 43.025 C 8.593 43.059,8.624 43.221,8.762 43.407 C 8.893 43.585,9.000 43.637,9.000 43.522 C 9.000 43.407,9.056 43.348,9.125 43.391 C 9.194 43.433,9.266 43.250,9.285 42.984 C 9.317 42.542,9.273 42.500,8.785 42.505 C 8.297 42.510,8.276 42.531,8.551 42.738 M35.721 48.713 C 35.673 48.791,35.450 48.924,35.224 49.010 C 34.998 49.096,34.860 49.242,34.918 49.336 C 34.976 49.429,35.084 49.468,35.159 49.421 C 35.234 49.375,35.390 49.450,35.505 49.589 C 35.678 49.798,35.669 49.824,35.449 49.739 C 35.220 49.652,35.211 49.695,35.384 50.061 C 35.536 50.383,35.605 50.424,35.673 50.230 C 35.723 50.090,35.798 49.994,35.840 50.016 C 35.882 50.038,36.104 49.965,36.333 49.852 C 36.725 49.660,36.731 49.664,36.426 49.907 C 36.249 50.050,36.189 50.167,36.295 50.167 C 36.746 50.167,37.377 49.145,37.042 48.958 C 36.973 48.919,37.010 48.911,37.125 48.939 C 37.240 48.967,37.333 48.918,37.333 48.831 C 37.333 48.512,35.910 48.408,35.721 48.713 M37.444 48.944 C 37.224 49.165,37.341 49.298,37.736 49.274 C 38.037 49.256,38.095 49.198,37.965 49.042 C 37.772 48.809,37.610 48.779,37.444 48.944 " stroke="none" fill="#74b474" fill-rule="evenodd"></path><path id="path1" d="M22.342 6.907 C 22.191 7.089,22.149 8.375,22.180 11.951 C 22.203 14.590,22.232 18.962,22.244 21.667 C 22.270 26.964,22.327 27.507,22.807 27.026 C 23.436 26.397,23.514 25.871,23.343 23.417 C 23.240 21.941,23.237 20.317,23.335 19.000 C 23.571 15.831,23.537 7.641,23.286 7.333 C 22.830 6.771,22.556 6.648,22.342 6.907 M11.111 7.778 C 11.050 7.839,11.000 8.204,11.000 8.590 C 11.000 9.280,10.989 9.292,10.328 9.398 C 9.502 9.530,9.333 9.886,9.333 11.500 C 9.333 12.524,9.296 12.656,8.976 12.758 C 7.116 13.348,6.781 14.224,6.712 18.667 C 6.639 23.360,6.695 23.194,5.083 23.531 C 4.289 23.697,3.917 23.786,3.250 23.970 L 2.750 24.107 2.750 28.010 C 2.750 31.780,2.761 31.914,3.083 31.975 C 3.267 32.010,3.472 32.124,3.539 32.228 C 3.627 32.363,3.662 32.358,3.664 32.208 C 3.666 32.094,3.817 32.000,4.000 32.000 C 4.215 32.000,4.333 32.111,4.333 32.314 C 4.333 33.248,11.003 33.238,12.141 32.302 C 12.562 31.956,13.167 30.843,13.167 30.413 C 13.167 30.200,13.915 29.389,14.199 29.295 C 14.502 29.194,14.607 18.700,14.320 17.246 C 14.090 16.081,14.075 14.784,14.278 13.500 C 14.443 12.451,14.359 11.804,14.000 11.371 C 13.554 10.835,12.828 9.261,12.828 8.833 C 12.829 7.867,12.674 7.667,11.925 7.667 C 11.538 7.667,11.172 7.717,11.111 7.778 M39.095 8.197 C 38.736 10.379,38.668 12.230,38.681 19.470 C 38.699 30.181,38.726 30.306,41.283 31.583 C 41.759 31.821,42.193 32.154,42.247 32.323 C 42.369 32.708,42.741 32.814,44.427 32.943 C 46.012 33.063,46.360 32.928,46.831 32.005 C 47.013 31.648,47.294 31.257,47.456 31.136 C 47.618 31.015,47.854 30.715,47.981 30.469 C 48.429 29.600,49.180 28.833,49.585 28.833 C 49.801 28.833,50.172 28.760,50.410 28.669 L 50.841 28.505 50.795 25.465 L 50.750 22.424 49.417 22.119 C 48.683 21.951,47.821 21.687,47.500 21.532 L 46.917 21.250 46.826 18.167 C 46.757 15.825,46.667 14.908,46.451 14.354 C 46.295 13.953,46.167 13.490,46.167 13.324 C 46.167 13.159,46.073 12.925,45.958 12.804 C 45.844 12.682,45.762 12.340,45.777 12.042 C 45.792 11.744,45.738 11.500,45.657 11.500 C 45.577 11.500,45.549 11.400,45.596 11.278 C 45.657 11.117,45.518 11.062,45.085 11.076 C 44.269 11.103,44.192 11.025,44.145 10.121 L 44.104 9.333 43.302 9.333 C 42.623 9.333,42.500 9.285,42.500 9.014 C 42.500 8.303,42.328 8.167,41.432 8.167 C 40.956 8.167,40.495 8.100,40.408 8.018 C 39.900 7.539,39.187 7.636,39.095 8.197 M30.422 8.730 L 29.967 9.184 30.025 14.134 C 30.085 19.186,30.194 19.962,30.856 19.995 C 31.283 20.016,31.532 9.525,31.123 8.744 L 30.877 8.275 30.422 8.730 M33.598 32.239 C 33.240 32.759,32.814 33.278,32.651 33.392 C 32.489 33.506,32.181 33.932,31.968 34.339 C 31.712 34.828,31.347 35.207,30.889 35.460 L 30.197 35.841 30.084 37.379 C 29.576 44.301,30.276 50.634,31.481 50.016 C 31.629 49.940,31.841 49.911,31.952 49.951 C 32.063 49.991,32.203 49.832,32.261 49.597 C 32.362 49.196,32.428 49.172,33.393 49.185 C 34.520 49.199,35.284 49.058,35.667 48.763 C 35.804 48.657,36.142 48.547,36.417 48.519 C 36.692 48.491,36.942 48.400,36.973 48.317 C 37.003 48.233,37.081 48.197,37.146 48.237 C 37.211 48.277,37.276 48.157,37.290 47.970 C 37.324 47.512,37.322 47.513,38.261 47.461 C 39.136 47.414,39.103 47.457,39.149 46.307 C 39.166 45.892,39.227 45.859,40.125 45.774 C 41.785 45.618,41.918 45.588,41.875 45.375 C 41.852 45.260,41.927 45.185,42.042 45.208 C 42.166 45.233,42.257 45.060,42.267 44.775 C 42.286 44.237,42.557 44.006,43.175 44.003 C 43.707 43.999,44.000 43.716,44.000 43.206 C 44.000 42.574,44.283 42.185,44.670 42.286 C 45.159 42.414,45.676 41.888,45.632 41.307 C 45.599 40.871,45.542 40.833,44.923 40.831 C 43.834 40.828,41.685 40.225,40.956 39.718 C 40.587 39.461,40.052 39.086,39.767 38.885 C 39.483 38.684,39.161 38.515,39.053 38.510 C 38.945 38.504,38.683 38.256,38.472 37.958 C 37.859 37.093,37.607 36.833,37.382 36.833 C 37.118 36.833,36.407 35.773,36.153 35.000 C 36.047 34.679,35.735 34.223,35.459 33.986 C 35.113 33.690,34.846 33.203,34.603 32.425 L 34.250 31.293 33.598 32.239 M20.133 35.274 C 19.176 35.513,19.000 35.616,19.000 35.933 C 19.000 36.919,17.057 39.000,16.137 39.000 C 15.980 39.000,15.754 39.204,15.634 39.452 C 15.515 39.701,15.229 39.994,15.000 40.103 C 14.771 40.212,14.385 40.392,14.143 40.502 C 13.901 40.613,13.622 40.883,13.521 41.103 C 13.294 41.602,12.583 41.912,11.083 42.165 C 9.226 42.479,9.309 42.423,9.366 43.306 L 9.417 44.083 10.208 44.134 C 10.985 44.184,11.000 44.196,11.021 44.759 C 11.062 45.895,10.852 45.786,13.042 45.816 L 14.333 45.833 14.333 46.667 L 14.333 47.500 16.000 47.500 L 17.667 47.500 17.686 47.958 C 17.696 48.210,17.693 48.539,17.679 48.688 C 17.645 49.033,18.085 49.137,19.653 49.153 C 21.085 49.168,20.978 49.119,21.030 49.800 C 21.053 50.094,21.149 50.334,21.244 50.336 C 21.339 50.337,21.304 50.411,21.167 50.500 C 20.872 50.691,20.848 50.683,21.942 50.745 L 22.802 50.793 22.808 49.966 C 22.812 49.512,22.882 49.052,22.965 48.945 C 23.419 48.355,23.507 47.118,23.437 42.250 C 23.350 36.256,23.264 35.667,22.472 35.667 C 22.295 35.667,21.873 35.534,21.534 35.373 C 21.004 35.120,20.806 35.106,20.133 35.274 " stroke="none" fill="#e2c347" fill-rule="evenodd"></path><path id="path2" d="M16.555 6.807 C 15.990 6.867,15.485 6.960,15.432 7.012 C 15.245 7.199,14.538 9.316,14.632 9.410 C 15.011 9.789,15.060 11.001,15.186 23.109 L 15.250 29.302 14.702 29.943 C 14.401 30.295,14.003 30.921,13.819 31.333 C 12.762 33.701,13.093 33.586,7.403 33.572 C 2.930 33.561,2.667 33.577,2.667 33.863 C 2.667 34.030,2.723 34.172,2.792 34.179 C 2.860 34.186,3.067 34.220,3.250 34.254 C 3.433 34.288,4.108 34.356,4.749 34.404 C 5.390 34.453,5.940 34.570,5.972 34.666 C 6.004 34.761,6.117 34.932,6.224 35.045 C 6.330 35.158,6.563 35.526,6.741 35.864 C 7.677 37.642,11.177 37.539,12.037 35.708 C 12.225 35.309,12.743 34.674,13.189 34.298 C 13.800 33.783,14.000 33.500,14.000 33.152 C 14.000 32.656,14.312 32.249,14.813 32.090 C 15.714 31.804,15.750 31.323,15.750 19.583 C 15.750 13.625,15.811 8.637,15.886 8.500 C 16.572 7.244,19.294 6.902,19.937 7.990 C 20.096 8.259,20.400 8.522,20.613 8.576 C 21.225 8.729,21.201 11.358,20.583 11.931 C 20.059 12.417,20.058 12.739,20.577 13.259 L 20.987 13.669 21.035 21.165 L 21.083 28.660 21.875 29.387 L 22.667 30.114 22.655 31.848 C 22.647 33.181,22.604 33.500,22.470 33.223 C 22.246 32.760,21.888 32.672,20.218 32.669 C 18.276 32.666,17.684 33.287,17.671 35.343 C 17.667 35.904,17.628 35.944,16.958 36.093 C 16.299 36.239,16.239 36.299,16.093 36.958 C 15.953 37.591,15.885 37.667,15.457 37.667 C 14.847 37.667,14.333 37.939,14.333 38.263 C 14.333 38.770,13.580 39.291,12.667 39.417 C 11.696 39.550,11.000 40.069,11.000 40.659 C 11.000 40.953,10.895 41.000,10.234 41.000 C 9.610 41.000,9.453 41.061,9.382 41.331 C 9.334 41.514,9.229 41.622,9.148 41.572 C 9.066 41.521,9.000 41.548,9.000 41.631 C 9.000 41.715,8.765 41.789,8.477 41.797 C 8.190 41.806,7.871 41.903,7.769 42.014 C 7.628 42.167,7.643 42.182,7.833 42.076 C 8.049 41.955,8.052 41.975,7.855 42.218 C 7.516 42.636,9.040 42.627,9.459 42.208 C 9.620 42.048,10.408 41.695,11.209 41.424 C 12.041 41.143,12.702 40.821,12.749 40.674 C 12.833 40.414,13.717 39.833,14.028 39.833 C 14.121 39.833,14.524 39.496,14.925 39.083 C 15.326 38.671,15.718 38.333,15.797 38.333 C 16.192 38.333,17.866 36.492,18.317 35.560 C 19.009 34.133,20.665 33.250,21.314 33.963 C 22.190 34.924,23.039 34.940,23.291 34.000 C 23.652 32.653,23.314 28.667,22.839 28.667 C 22.539 28.667,21.979 27.983,21.752 27.339 C 21.543 26.746,21.502 25.169,21.496 17.525 C 21.489 8.248,21.432 7.321,20.853 7.011 C 20.449 6.794,17.834 6.670,16.555 6.807 M33.687 6.823 C 32.049 7.241,32.142 6.842,31.994 14.083 C 31.924 17.475,31.787 20.737,31.689 21.333 C 31.591 21.929,31.392 23.239,31.246 24.243 C 31.101 25.248,30.913 26.154,30.829 26.256 C 30.113 27.118,29.798 32.510,30.394 33.708 C 30.789 34.503,30.817 34.497,31.417 33.475 C 31.692 33.006,32.234 32.293,32.623 31.890 C 33.011 31.488,33.440 30.944,33.575 30.683 C 34.111 29.647,35.035 30.267,35.246 31.804 C 35.339 32.478,35.488 32.749,36.096 33.346 C 36.501 33.744,36.833 34.136,36.833 34.218 C 36.833 34.652,37.488 35.613,38.468 36.618 C 39.578 37.756,39.756 37.886,41.208 38.607 C 41.644 38.824,42.000 39.065,42.000 39.144 C 42.000 39.223,42.356 39.421,42.792 39.583 C 43.227 39.745,43.738 40.018,43.927 40.189 C 44.117 40.360,44.454 40.505,44.677 40.512 C 44.901 40.518,45.233 40.582,45.417 40.654 C 46.182 40.954,47.333 40.217,47.333 39.426 C 47.333 39.025,46.887 38.724,46.098 38.593 C 45.831 38.548,45.534 38.434,45.439 38.339 C 45.344 38.244,45.107 38.167,44.911 38.167 C 44.716 38.167,44.499 38.110,44.431 38.042 C 44.362 37.973,44.256 37.912,44.194 37.906 C 44.133 37.901,43.315 37.836,42.375 37.763 C 40.675 37.631,40.667 37.629,40.661 37.190 C 40.654 36.556,40.290 36.166,39.601 36.054 C 39.090 35.971,38.999 35.891,38.995 35.520 C 38.987 34.920,38.644 34.521,38.031 34.398 C 37.570 34.306,37.503 34.215,37.403 33.551 C 37.342 33.142,37.188 32.767,37.062 32.719 C 36.936 32.671,36.833 32.511,36.833 32.365 C 36.833 32.219,36.615 31.871,36.348 31.591 C 36.051 31.281,35.806 30.792,35.718 30.333 C 35.605 29.751,35.469 29.534,35.109 29.361 C 34.854 29.238,34.605 29.032,34.555 28.902 C 34.428 28.573,34.060 28.609,33.801 28.976 C 33.681 29.146,33.423 29.336,33.226 29.398 C 32.866 29.512,32.673 29.937,32.669 30.625 C 32.667 30.909,32.570 31.000,32.268 31.000 C 31.715 31.000,31.211 31.476,31.035 32.167 L 30.886 32.750 30.760 32.033 C 30.514 30.630,30.800 29.026,31.347 28.743 C 32.012 28.399,32.238 27.440,32.565 23.583 C 32.712 21.842,32.899 20.154,32.981 19.833 C 33.523 17.699,33.591 15.616,33.170 14.000 C 32.775 12.478,32.762 11.069,33.138 10.540 C 33.326 10.276,33.569 9.541,33.677 8.905 C 33.952 7.298,33.983 7.273,35.577 7.382 C 37.756 7.532,37.665 7.251,37.666 13.823 C 37.667 19.139,37.661 19.235,37.305 19.613 C 36.699 20.258,36.730 23.047,37.376 26.000 C 37.466 26.412,37.590 27.837,37.651 29.167 C 37.773 31.852,37.917 32.271,38.772 32.432 C 39.189 32.510,39.318 32.633,39.397 33.025 C 39.510 33.591,39.729 33.837,40.370 34.121 C 40.620 34.232,40.931 34.568,41.061 34.869 C 41.583 36.073,42.189 36.557,43.308 36.664 C 43.872 36.718,44.333 36.703,44.333 36.631 C 44.333 36.559,44.428 36.500,44.544 36.500 C 44.660 36.500,44.895 36.313,45.067 36.083 C 45.239 35.854,45.515 35.667,45.680 35.667 C 45.845 35.667,46.027 35.592,46.083 35.500 C 46.140 35.408,46.336 35.333,46.518 35.333 C 46.738 35.333,46.930 35.143,47.086 34.770 C 47.293 34.273,47.416 34.192,48.119 34.087 C 49.067 33.945,49.161 33.828,49.164 32.786 C 49.167 31.995,49.601 31.519,50.067 31.795 C 50.150 31.845,50.165 31.798,50.099 31.692 C 50.034 31.587,50.064 31.500,50.167 31.500 C 50.269 31.500,50.308 31.427,50.253 31.339 C 50.199 31.250,50.307 31.082,50.494 30.965 C 50.680 30.849,50.833 30.627,50.833 30.473 C 50.833 30.318,51.056 29.970,51.328 29.697 L 51.823 29.202 51.370 28.747 L 50.917 28.292 50.833 29.271 L 50.750 30.250 49.898 30.300 C 48.908 30.357,48.667 30.674,48.667 31.917 C 48.667 32.634,48.652 32.654,48.042 32.768 C 47.698 32.831,47.298 33.019,47.153 33.185 C 46.323 34.134,42.440 33.998,41.443 32.985 C 41.135 32.673,40.628 32.274,40.317 32.099 C 38.069 30.839,38.131 31.232,38.149 18.317 C 38.164 8.093,38.146 7.366,37.873 7.119 C 37.524 6.804,34.579 6.596,33.687 6.823 M44.167 10.542 C 44.167 10.691,44.247 10.863,44.344 10.924 C 44.630 11.100,44.658 10.942,44.403 10.593 C 44.205 10.323,44.167 10.314,44.167 10.542 M5.500 40.825 C 5.123 40.886,4.990 40.966,5.125 41.053 C 5.240 41.126,5.333 41.261,5.333 41.353 C 5.333 41.445,5.240 41.466,5.125 41.400 C 5.006 41.331,4.975 41.344,5.053 41.429 C 5.129 41.512,5.316 41.580,5.470 41.581 C 5.627 41.582,5.731 41.693,5.706 41.833 C 5.676 42.003,5.744 41.978,5.918 41.754 C 6.145 41.463,6.218 41.451,6.546 41.653 L 6.917 41.881 6.583 41.499 L 6.250 41.118 6.609 41.306 C 6.925 41.472,6.957 41.455,6.881 41.164 C 6.833 40.982,6.747 40.828,6.689 40.821 C 6.631 40.814,6.471 40.791,6.333 40.770 C 6.196 40.749,5.821 40.774,5.500 40.825 M7.839 42.714 C 7.826 43.032,8.397 43.656,8.844 43.812 C 9.113 43.906,9.333 43.945,9.333 43.899 C 9.333 43.853,9.108 43.738,8.833 43.642 C 8.558 43.546,8.333 43.414,8.333 43.349 C 8.333 43.181,7.845 42.555,7.839 42.714 M37.500 48.389 C 37.500 48.513,37.644 48.745,37.820 48.904 C 38.175 49.226,37.808 49.833,37.260 49.833 C 37.128 49.833,36.973 49.908,36.917 50.000 C 36.860 50.092,36.556 50.167,36.240 50.167 C 35.925 50.167,35.667 50.242,35.667 50.333 C 35.667 50.425,35.685 50.500,35.708 50.499 C 37.333 50.461,38.720 49.639,38.344 48.937 C 38.082 48.448,37.500 48.070,37.500 48.389 M34.606 49.417 C 34.659 49.554,34.774 49.667,34.861 49.667 C 34.948 49.667,34.979 49.733,34.928 49.814 C 34.815 49.998,35.300 50.422,35.451 50.271 C 35.512 50.211,35.472 50.072,35.364 49.964 C 35.056 49.656,35.133 49.432,35.458 49.688 C 35.722 49.895,35.728 49.889,35.523 49.627 C 35.398 49.467,35.234 49.375,35.159 49.421 C 35.084 49.468,34.976 49.429,34.918 49.336 C 34.755 49.071,34.499 49.137,34.606 49.417 M32.153 52.792 C 32.233 53.367,32.245 53.379,32.300 52.938 C 32.333 52.675,32.294 52.394,32.213 52.313 C 32.129 52.229,32.104 52.434,32.153 52.792 " stroke="none" fill="#141404" fill-rule="evenodd"></path><path id="path3" d="M76.111 2.778 C 76.050 2.839,76.000 3.585,76.000 4.435 L 76.000 5.982 75.208 6.033 L 74.417 6.083 74.372 10.187 L 74.328 14.290 73.650 14.381 C 72.705 14.508,72.755 14.282,72.700 18.659 L 72.650 22.625 71.978 22.715 C 71.039 22.841,71.088 22.618,71.033 26.993 L 70.983 30.958 70.311 31.048 C 69.368 31.175,69.422 30.883,69.368 36.180 L 69.319 41.000 68.493 41.000 L 67.667 41.000 67.669 43.042 C 67.673 45.901,67.526 45.814,72.363 45.826 C 76.079 45.835,75.833 46.030,75.833 43.071 L 75.833 40.833 76.467 40.833 C 77.502 40.833,77.500 40.844,77.500 36.467 L 77.500 32.500 78.133 32.500 C 79.169 32.500,79.167 32.510,79.167 28.133 L 79.167 24.167 79.738 24.167 C 80.809 24.167,80.829 24.085,80.868 19.696 C 80.901 15.990,80.909 15.902,80.993 18.250 L 81.083 20.750 81.875 20.801 L 82.667 20.852 82.667 25.680 L 82.667 30.508 83.094 30.671 C 83.329 30.760,83.703 30.833,83.924 30.833 L 84.326 30.833 84.371 34.125 L 84.417 37.417 88.417 37.417 L 92.417 37.417 92.467 36.634 L 92.518 35.851 93.300 35.800 L 94.083 35.750 94.167 34.917 C 94.246 34.123,94.275 34.081,94.779 34.032 C 95.529 33.959,95.660 33.716,95.778 32.187 L 95.883 30.833 96.429 30.833 C 97.318 30.833,97.500 30.506,97.500 28.905 L 97.500 27.500 98.133 27.500 C 99.056 27.500,99.167 27.302,99.167 25.642 L 99.167 24.185 99.958 24.134 L 100.750 24.083 100.833 23.250 C 100.913 22.456,100.942 22.414,101.446 22.365 C 102.190 22.293,102.310 22.074,102.476 20.485 C 102.604 19.260,102.625 19.517,102.645 22.533 L 102.667 25.982 101.875 26.033 L 101.083 26.083 101.039 30.199 L 100.994 34.315 100.205 34.366 L 99.417 34.417 99.417 40.083 L 99.417 45.750 102.395 45.796 C 105.712 45.846,105.833 45.813,105.833 44.835 C 105.833 44.230,105.855 44.208,106.514 44.119 C 107.462 43.992,107.411 44.219,107.467 39.841 L 107.517 35.875 108.189 35.785 C 109.127 35.659,109.075 35.889,109.167 31.445 L 109.250 27.417 109.779 27.365 C 110.709 27.275,110.742 27.137,110.833 22.933 L 110.917 19.083 111.446 19.032 C 112.399 18.940,112.412 18.877,112.472 13.808 L 112.527 9.167 113.160 9.167 C 114.114 9.167,114.183 8.982,114.130 6.560 L 114.083 4.417 108.375 4.373 L 102.667 4.329 102.667 5.164 L 102.667 6.000 101.833 6.000 L 101.000 6.000 101.000 7.667 L 101.000 9.333 100.167 9.333 L 99.333 9.333 99.333 10.145 L 99.333 10.956 98.653 11.047 C 97.746 11.169,97.758 11.146,97.692 12.839 L 97.634 14.316 96.859 14.367 L 96.083 14.417 96.036 16.042 L 95.988 17.667 95.161 17.667 L 94.333 17.667 94.333 19.333 L 94.333 21.000 93.500 21.000 L 92.667 21.000 92.667 21.811 L 92.667 22.623 91.986 22.714 C 91.083 22.835,91.101 22.801,90.987 24.554 C 90.932 25.395,90.875 25.882,90.860 25.636 C 90.800 24.641,90.559 24.333,89.837 24.333 L 89.167 24.333 89.159 20.208 C 89.150 14.793,89.058 14.342,87.958 14.336 L 87.500 14.333 87.493 10.208 C 87.483 4.793,87.391 4.342,86.292 4.336 C 85.882 4.334,85.833 4.273,85.833 3.764 C 85.833 2.601,86.127 2.667,80.927 2.667 C 78.339 2.667,76.172 2.717,76.111 2.778 M154.372 6.708 L 154.417 10.750 158.119 10.750 C 162.872 10.750,162.400 11.221,162.474 6.411 L 162.532 2.667 158.430 2.667 L 154.327 2.667 154.372 6.708 M169.333 5.991 L 169.333 9.315 168.542 9.366 L 167.750 9.417 167.705 13.520 L 167.661 17.624 166.983 17.714 C 166.038 17.841,166.089 17.616,166.033 21.993 L 165.983 25.958 165.311 26.048 C 164.368 26.175,164.422 25.883,164.368 31.180 L 164.319 36.000 163.490 36.000 L 162.662 36.000 162.706 40.875 L 162.750 45.750 165.728 45.796 C 169.331 45.851,169.167 45.938,169.167 43.980 L 169.167 42.500 169.800 42.500 C 170.836 42.500,170.833 42.510,170.833 38.133 L 170.833 34.167 171.467 34.167 C 172.502 34.167,172.500 34.177,172.500 29.800 L 172.500 25.833 173.071 25.833 C 174.147 25.833,174.167 25.753,174.167 21.405 L 174.167 17.500 174.738 17.500 C 175.813 17.500,175.833 17.419,175.833 13.071 L 175.833 9.167 176.405 9.167 C 177.446 9.167,177.500 8.994,177.500 5.655 L 177.500 2.667 173.417 2.667 L 169.333 2.667 169.333 5.991 M314.333 4.333 L 314.333 6.000 313.500 6.000 L 312.667 6.000 312.667 10.158 L 312.667 14.315 311.875 14.366 L 311.083 14.417 311.039 18.533 L 310.994 22.649 310.205 22.699 L 309.417 22.750 309.372 26.866 L 309.328 30.982 308.539 31.033 L 307.750 31.083 307.705 35.199 L 307.661 39.315 306.872 39.366 L 306.083 39.417 306.083 42.583 L 306.083 45.750 309.896 45.795 C 314.630 45.851,314.167 46.226,314.167 42.335 L 314.167 39.211 314.847 39.119 C 315.787 38.993,315.740 39.160,315.842 35.612 C 315.892 33.854,315.949 32.810,315.967 33.292 L 316.000 34.167 316.833 34.167 L 317.667 34.167 317.667 35.000 L 317.667 35.833 318.500 35.833 L 319.333 35.833 319.336 37.125 C 319.339 38.661,319.433 38.848,320.274 38.984 C 320.893 39.083,320.919 39.114,320.968 39.802 C 321.023 40.563,321.362 40.833,322.261 40.833 C 322.629 40.833,322.667 40.901,322.667 41.564 C 322.667 42.349,322.851 42.493,323.866 42.498 C 324.283 42.500,324.319 42.556,324.366 43.292 L 324.417 44.083 325.200 44.134 L 325.982 44.184 326.033 44.967 L 326.083 45.750 330.083 45.750 L 334.083 45.750 334.133 43.917 C 334.208 41.183,334.153 41.000,333.252 41.000 L 332.518 41.000 332.467 40.208 L 332.417 39.417 331.634 39.366 L 330.851 39.316 330.800 38.533 L 330.750 37.750 329.958 37.699 L 329.167 37.648 329.167 36.824 L 329.167 36.000 328.333 36.000 L 327.500 36.000 327.493 35.208 C 327.475 33.315,327.259 32.823,326.379 32.680 C 325.809 32.587,325.746 32.523,325.651 31.939 C 325.534 31.222,325.298 31.006,324.625 31.003 C 324.251 31.000,324.167 30.925,324.167 30.594 C 324.167 29.674,323.892 29.335,323.129 29.312 L 322.417 29.292 323.139 29.174 C 323.955 29.042,324.160 28.817,324.164 28.051 C 324.167 27.534,324.190 27.517,324.958 27.467 L 325.750 27.417 325.800 26.634 L 325.851 25.851 326.634 25.800 L 327.417 25.750 327.467 24.975 L 327.517 24.199 328.995 24.141 C 330.687 24.075,330.664 24.087,330.786 23.180 C 330.874 22.525,330.899 22.500,331.489 22.500 C 332.263 22.500,332.500 22.260,332.500 21.476 L 332.500 20.852 333.292 20.801 L 334.083 20.750 334.133 19.975 L 334.184 19.199 335.661 19.141 C 337.354 19.075,337.331 19.087,337.453 18.180 C 337.541 17.522,337.564 17.500,338.168 17.500 C 339.052 17.500,339.189 17.248,339.132 15.724 L 339.083 14.417 334.208 14.372 L 329.333 14.328 329.333 15.158 L 329.333 15.988 327.708 16.036 L 326.083 16.083 326.033 16.875 L 325.982 17.667 325.158 17.667 L 324.333 17.667 324.333 18.500 L 324.333 19.333 323.500 19.333 L 322.667 19.333 322.667 20.161 L 322.667 20.988 321.042 21.036 L 319.417 21.083 319.366 21.875 L 319.315 22.667 318.500 22.667 L 317.684 22.667 317.623 23.542 L 317.562 24.417 317.531 23.480 L 317.500 22.544 318.180 22.453 C 319.128 22.326,319.075 22.560,319.167 18.111 L 319.250 14.083 319.779 14.032 C 320.709 13.942,320.742 13.803,320.833 9.600 L 320.917 5.750 321.446 5.699 C 322.252 5.621,322.403 5.290,322.351 3.720 C 322.317 2.693,322.209 2.667,318.071 2.667 L 314.333 2.667 314.333 4.333 M194.333 7.482 C 194.333 10.200,194.369 10.645,194.597 10.732 C 194.742 10.788,197.742 10.833,201.264 10.833 L 207.667 10.833 207.667 12.583 L 207.667 14.333 207.097 14.333 C 205.942 14.333,206.000 14.110,206.000 18.601 L 206.000 22.667 205.430 22.667 C 204.276 22.667,204.333 22.443,204.333 26.934 L 204.333 31.000 203.840 31.000 C 202.741 31.000,202.667 31.286,202.667 35.531 L 202.667 39.333 202.173 39.333 C 201.137 39.333,201.000 39.735,201.000 42.786 L 201.000 45.508 201.428 45.671 C 201.976 45.879,208.502 45.879,208.833 45.671 C 209.015 45.556,209.106 45.091,209.167 43.965 L 209.250 42.417 209.779 42.365 C 210.709 42.275,210.742 42.137,210.833 37.933 L 210.917 34.083 211.446 34.032 C 212.399 33.940,212.412 33.877,212.472 28.808 L 212.527 24.167 213.147 24.167 C 214.167 24.167,214.167 24.169,214.167 19.800 L 214.167 15.833 214.800 15.833 C 215.783 15.833,215.833 15.701,215.833 13.138 L 215.833 10.843 223.153 10.797 C 227.179 10.771,230.535 10.688,230.611 10.612 C 230.688 10.535,230.773 9.092,230.802 7.403 L 230.854 4.333 212.594 4.333 L 194.333 4.333 194.333 7.482 M17.305 7.478 C 16.821 7.592,15.858 8.376,15.792 8.710 C 15.770 8.823,15.751 13.754,15.751 19.667 C 15.750 31.314,15.713 31.804,14.813 32.090 C 14.312 32.249,14.000 32.656,14.000 33.152 C 14.000 33.500,13.800 33.783,13.189 34.298 C 12.743 34.674,12.225 35.309,12.037 35.708 C 11.177 37.539,7.677 37.642,6.741 35.864 C 6.563 35.526,6.330 35.158,6.224 35.045 C 6.117 34.932,6.004 34.763,5.973 34.669 C 5.942 34.576,5.429 34.461,4.833 34.414 C 4.237 34.368,3.505 34.293,3.205 34.248 L 2.660 34.167 2.705 37.459 L 2.750 40.750 3.542 40.801 C 4.277 40.848,4.334 40.884,4.336 41.301 C 4.340 41.973,4.551 42.189,5.355 42.345 C 6.589 42.583,7.600 42.532,7.855 42.218 C 8.052 41.975,8.049 41.955,7.833 42.076 C 7.643 42.182,7.628 42.167,7.769 42.014 C 7.871 41.903,8.190 41.806,8.477 41.797 C 8.765 41.789,9.000 41.715,9.000 41.631 C 9.000 41.548,9.066 41.521,9.148 41.572 C 9.229 41.622,9.334 41.514,9.382 41.331 C 9.453 41.061,9.610 41.000,10.234 41.000 C 10.895 41.000,11.000 40.953,11.000 40.659 C 11.000 40.069,11.696 39.550,12.667 39.417 C 13.580 39.291,14.333 38.770,14.333 38.263 C 14.333 37.939,14.847 37.667,15.457 37.667 C 15.885 37.667,15.953 37.591,16.093 36.958 C 16.239 36.299,16.299 36.239,16.958 36.093 C 17.628 35.944,17.667 35.904,17.671 35.343 C 17.684 33.287,18.276 32.666,20.218 32.669 C 21.888 32.672,22.246 32.760,22.470 33.223 C 22.604 33.500,22.647 33.181,22.655 31.848 L 22.667 30.114 21.875 29.387 L 21.083 28.660 21.035 21.165 L 20.987 13.669 20.577 13.259 C 20.058 12.739,20.059 12.417,20.583 11.931 C 20.966 11.577,21.000 11.427,21.000 10.109 C 21.000 8.716,20.987 8.670,20.583 8.568 C 20.354 8.511,20.167 8.408,20.167 8.340 C 20.167 7.576,18.726 7.142,17.305 7.478 M34.059 7.520 C 33.957 7.647,33.786 8.270,33.677 8.905 C 33.569 9.541,33.326 10.276,33.138 10.540 C 32.762 11.069,32.775 12.478,33.170 14.000 C 33.591 15.616,33.523 17.699,32.981 19.833 C 32.899 20.154,32.712 21.842,32.565 23.583 C 32.238 27.440,32.012 28.399,31.347 28.743 C 30.800 29.026,30.514 30.630,30.760 32.033 L 30.886 32.750 31.035 32.167 C 31.211 31.476,31.715 31.000,32.268 31.000 C 32.570 31.000,32.667 30.909,32.669 30.625 C 32.673 29.937,32.866 29.512,33.226 29.398 C 33.423 29.336,33.681 29.146,33.801 28.976 C 34.060 28.609,34.428 28.573,34.555 28.902 C 34.605 29.032,34.854 29.238,35.109 29.361 C 35.469 29.534,35.605 29.751,35.718 30.333 C 35.806 30.792,36.051 31.281,36.348 31.591 C 36.615 31.871,36.833 32.219,36.833 32.365 C 36.833 32.511,36.936 32.671,37.062 32.719 C 37.188 32.767,37.342 33.142,37.403 33.551 C 37.503 34.215,37.570 34.306,38.031 34.398 C 38.644 34.521,38.987 34.920,38.995 35.520 C 38.999 35.891,39.090 35.971,39.601 36.054 C 40.290 36.166,40.654 36.556,40.661 37.190 C 40.667 37.629,40.675 37.631,42.375 37.763 C 43.315 37.836,44.133 37.901,44.194 37.906 C 44.256 37.912,44.362 37.973,44.431 38.042 C 44.499 38.110,44.716 38.167,44.911 38.167 C 45.107 38.167,45.344 38.244,45.439 38.339 C 45.534 38.434,45.831 38.548,46.098 38.593 C 47.644 38.850,47.765 40.196,46.284 40.663 C 45.773 40.824,45.781 40.828,46.472 40.763 C 47.348 40.680,47.340 40.688,47.450 39.866 C 47.534 39.242,47.575 39.200,48.200 39.117 C 49.084 38.998,49.075 39.015,49.141 37.340 L 49.198 35.874 49.879 35.729 C 50.435 35.610,50.584 35.495,50.688 35.103 C 50.859 34.463,50.849 30.833,50.676 30.833 C 50.466 30.833,50.156 31.268,50.279 31.390 C 50.340 31.451,50.297 31.500,50.185 31.500 C 50.072 31.500,50.034 31.587,50.099 31.692 C 50.165 31.798,50.150 31.845,50.067 31.795 C 49.601 31.519,49.167 31.995,49.164 32.786 C 49.161 33.828,49.067 33.945,48.119 34.087 C 47.416 34.192,47.293 34.273,47.086 34.770 C 46.930 35.143,46.738 35.333,46.518 35.333 C 46.336 35.333,46.140 35.408,46.083 35.500 C 46.027 35.592,45.845 35.667,45.680 35.667 C 45.515 35.667,45.239 35.854,45.067 36.083 C 44.895 36.312,44.660 36.500,44.544 36.500 C 44.428 36.500,44.333 36.559,44.333 36.631 C 44.333 36.703,43.872 36.718,43.308 36.664 C 42.189 36.557,41.583 36.073,41.061 34.869 C 40.931 34.568,40.620 34.232,40.370 34.121 C 39.729 33.837,39.510 33.591,39.397 33.025 C 39.318 32.633,39.189 32.510,38.772 32.432 C 37.917 32.271,37.773 31.852,37.651 29.167 C 37.590 27.837,37.466 26.412,37.376 26.000 C 36.730 23.047,36.699 20.258,37.305 19.613 C 37.883 18.998,37.868 8.670,37.288 7.945 C 36.837 7.381,34.425 7.064,34.059 7.520 M44.168 9.716 C 44.170 9.916,45.197 11.000,45.384 11.000 C 45.438 11.000,45.410 10.794,45.322 10.542 C 45.152 10.057,44.165 9.351,44.168 9.716 M124.542 12.776 C 124.419 12.826,124.333 13.165,124.333 13.597 L 124.333 14.333 122.667 14.333 L 121.000 14.333 121.000 17.583 L 121.000 20.833 123.988 20.833 C 127.327 20.833,127.500 20.779,127.500 19.738 L 127.500 19.167 130.908 19.167 L 134.315 19.167 134.366 19.958 L 134.417 20.750 135.208 20.801 L 136.000 20.852 136.000 21.573 C 136.000 22.349,136.187 22.493,137.208 22.498 C 137.653 22.500,137.667 22.528,137.667 23.417 L 137.667 24.333 130.430 24.333 C 122.218 24.333,122.667 24.279,122.667 25.268 L 122.667 26.000 121.000 26.000 L 119.333 26.000 119.333 26.833 L 119.333 27.667 118.500 27.667 L 117.667 27.667 117.667 28.491 L 117.667 29.315 116.875 29.366 L 116.083 29.417 116.037 31.875 L 115.991 34.333 115.162 34.333 L 114.333 34.333 114.333 36.647 C 114.333 39.208,114.310 39.158,115.536 39.164 L 115.988 39.167 116.036 40.792 L 116.083 42.417 116.875 42.467 L 117.667 42.518 117.667 43.342 L 117.667 44.167 118.500 44.167 L 119.333 44.167 119.333 44.837 C 119.333 45.809,119.476 45.833,125.249 45.833 C 130.873 45.833,130.833 45.841,130.833 44.738 L 130.833 44.167 131.750 44.167 C 132.638 44.167,132.667 44.181,132.669 44.625 C 132.675 45.679,133.208 45.816,137.363 45.826 C 141.079 45.835,140.833 46.030,140.833 43.071 L 140.833 40.833 141.405 40.833 C 142.479 40.833,142.500 40.750,142.500 36.427 L 142.500 32.544 143.180 32.453 C 143.555 32.402,143.911 32.311,143.972 32.250 C 144.120 32.103,144.217 18.875,144.080 17.540 C 143.960 16.367,143.700 16.000,142.988 16.000 C 142.567 16.000,142.500 15.937,142.498 15.542 C 142.492 14.365,142.446 14.333,140.740 14.333 L 139.185 14.333 139.134 13.542 L 139.083 12.750 131.917 12.721 C 127.975 12.704,124.656 12.729,124.542 12.776 M152.778 12.778 C 152.717 12.839,152.667 14.335,152.667 16.102 L 152.667 19.315 151.875 19.366 L 151.083 19.417 151.039 23.533 L 150.994 27.649 150.205 27.699 L 149.417 27.750 149.372 31.866 L 149.328 35.982 148.539 36.033 L 147.750 36.083 147.706 40.855 L 147.662 45.626 148.039 45.728 C 148.774 45.924,153.755 45.845,153.967 45.633 C 154.077 45.523,154.167 45.158,154.167 44.822 C 154.167 44.233,154.191 44.207,154.847 44.119 C 155.795 43.992,155.745 44.219,155.800 39.841 L 155.850 35.875 156.522 35.785 C 157.461 35.659,157.412 35.882,157.467 31.507 L 157.517 27.542 158.189 27.452 C 159.127 27.326,159.078 27.548,159.133 23.174 L 159.183 19.208 159.855 19.118 C 160.225 19.069,160.578 18.978,160.639 18.917 C 160.830 18.727,160.868 13.613,160.682 13.123 L 160.508 12.667 156.699 12.667 C 154.603 12.667,152.839 12.717,152.778 12.778 M227.778 12.778 C 227.717 12.839,227.667 14.335,227.667 16.102 L 227.667 19.315 226.875 19.366 L 226.083 19.417 226.039 23.533 L 225.994 27.649 225.205 27.699 L 224.417 27.750 224.372 31.866 L 224.328 35.982 223.539 36.033 L 222.750 36.083 222.706 40.855 L 222.662 45.626 223.039 45.728 C 223.774 45.924,228.755 45.845,228.967 45.633 C 229.077 45.523,229.167 45.148,229.167 44.800 C 229.167 44.190,229.188 44.167,229.738 44.167 C 230.813 44.167,230.833 44.086,230.833 39.738 L 230.833 35.833 231.375 35.831 C 232.407 35.826,232.409 35.822,232.500 32.298 L 232.583 29.083 233.113 29.032 C 233.949 28.951,234.048 28.690,234.133 26.333 L 234.210 24.183 234.980 24.133 L 235.750 24.083 235.800 23.300 L 235.851 22.518 236.634 22.467 L 237.417 22.417 237.467 21.637 L 237.517 20.858 239.829 20.804 C 242.437 20.743,242.294 20.796,242.487 19.815 L 242.630 19.083 242.648 19.867 C 242.671 20.824,242.892 20.897,245.473 20.808 C 247.586 20.735,247.417 21.101,247.417 16.611 L 247.417 12.750 242.583 12.750 L 237.750 12.750 237.699 13.542 L 237.648 14.333 236.741 14.333 C 235.890 14.333,235.833 14.308,235.833 13.928 C 235.833 13.704,235.760 13.329,235.671 13.094 L 235.508 12.667 231.699 12.667 C 229.603 12.667,227.839 12.717,227.778 12.778 M254.673 13.031 C 254.486 13.232,254.333 13.607,254.333 13.865 L 254.333 14.333 252.667 14.333 L 251.000 14.333 251.000 15.991 L 251.000 17.648 250.208 17.699 L 249.417 17.750 249.370 19.775 C 249.311 22.353,249.404 22.470,251.417 22.335 C 252.081 22.290,252.304 22.082,252.365 21.446 L 252.417 20.917 255.438 20.829 C 258.739 20.733,258.945 20.673,259.032 19.779 L 259.083 19.250 260.875 19.203 L 262.667 19.155 262.667 19.832 C 262.667 20.676,262.995 20.833,264.761 20.833 L 266.000 20.833 266.000 22.581 L 266.000 24.330 259.375 24.373 L 252.750 24.417 252.699 25.202 L 252.649 25.988 251.033 26.036 L 249.417 26.083 249.366 26.875 L 249.315 27.667 248.491 27.667 L 247.667 27.667 247.667 28.500 L 247.667 29.333 246.833 29.333 L 246.000 29.333 246.000 30.991 L 246.000 32.648 245.208 32.699 L 244.417 32.750 244.417 36.750 L 244.417 40.750 245.208 40.801 L 246.000 40.852 246.003 42.134 C 246.006 43.914,246.286 44.139,248.533 44.159 L 249.315 44.167 249.366 44.958 L 249.417 45.750 254.861 45.794 C 260.919 45.843,260.833 45.858,260.833 44.738 L 260.833 44.167 261.750 44.167 L 262.667 44.167 262.667 44.837 C 262.667 45.413,262.731 45.533,263.118 45.680 C 263.651 45.883,270.402 45.821,270.611 45.612 C 270.688 45.535,270.773 44.054,270.802 42.320 L 270.854 39.167 271.415 39.167 C 272.478 39.167,272.500 39.078,272.500 34.760 L 272.500 30.877 273.180 30.786 C 274.137 30.658,274.078 31.039,274.133 24.611 C 274.195 17.453,274.222 17.667,273.242 17.667 L 272.500 17.667 272.493 16.875 C 272.472 14.623,272.328 14.437,270.531 14.333 L 269.088 14.250 268.984 13.608 C 268.830 12.657,268.946 12.672,261.715 12.669 C 255.034 12.667,255.012 12.668,254.673 13.031 M291.000 13.496 L 291.000 14.324 288.542 14.371 L 286.083 14.417 286.033 15.208 L 285.982 16.000 285.158 16.000 L 284.333 16.000 284.333 16.833 L 284.333 17.667 283.500 17.667 L 282.667 17.667 282.667 18.491 L 282.667 19.315 281.875 19.366 L 281.083 19.417 281.036 21.042 L 280.988 22.667 280.161 22.667 L 279.333 22.667 279.333 24.324 L 279.333 25.982 278.542 26.033 L 277.750 26.083 277.710 33.083 C 277.667 40.622,277.652 40.496,278.608 40.650 C 279.239 40.752,279.251 40.769,279.333 41.585 L 279.417 42.417 280.200 42.467 L 280.982 42.518 281.033 43.300 L 281.083 44.083 282.699 44.131 L 284.316 44.179 284.366 44.964 L 284.417 45.750 291.528 45.793 C 299.424 45.842,299.167 45.877,299.167 44.747 C 299.167 44.195,299.180 44.184,299.958 44.134 L 300.750 44.083 300.798 42.458 L 300.845 40.833 301.486 40.833 C 302.386 40.833,302.523 40.586,302.466 39.057 L 302.417 37.750 299.208 37.705 L 296.000 37.659 296.000 38.496 L 296.000 39.333 292.583 39.333 L 289.167 39.333 289.167 38.928 C 289.167 38.028,288.897 37.690,288.135 37.635 C 287.447 37.585,287.417 37.559,287.317 36.941 C 287.201 36.223,286.965 36.006,286.292 36.003 L 285.833 36.000 285.833 31.750 L 285.833 27.500 286.467 27.500 C 287.390 27.500,287.500 27.302,287.500 25.642 L 287.500 24.185 288.292 24.134 L 289.083 24.083 289.134 23.300 L 289.184 22.518 289.967 22.467 L 290.750 22.417 290.801 21.625 L 290.852 20.833 292.309 20.833 C 293.968 20.833,294.167 20.723,294.167 19.800 L 294.167 19.167 295.917 19.167 L 297.667 19.167 297.667 19.837 C 297.667 20.731,297.967 20.833,300.594 20.833 L 302.667 20.833 302.667 21.564 C 302.667 22.412,302.816 22.494,304.363 22.498 C 305.867 22.501,305.833 22.601,305.833 18.155 L 305.833 14.333 304.167 14.333 L 302.500 14.333 302.500 13.764 C 302.500 12.592,302.897 12.667,296.649 12.667 L 291.000 12.667 291.000 13.496 M351.000 13.496 L 351.000 14.324 348.542 14.371 L 346.083 14.417 346.033 15.208 L 345.982 16.000 345.158 16.000 L 344.333 16.000 344.333 16.833 L 344.333 17.667 343.500 17.667 L 342.667 17.667 342.667 18.491 L 342.667 19.315 341.875 19.366 L 341.083 19.417 341.036 21.042 L 340.988 22.667 340.161 22.667 L 339.333 22.667 339.333 24.311 L 339.333 25.956 338.653 26.047 C 338.279 26.098,337.922 26.189,337.861 26.250 C 337.800 26.311,337.750 29.223,337.750 32.722 L 337.750 39.083 338.542 39.134 L 339.333 39.185 339.333 40.680 C 339.333 42.306,339.467 42.500,340.585 42.500 C 340.940 42.500,340.987 42.583,341.033 43.292 L 341.083 44.083 342.699 44.131 L 344.316 44.179 344.366 44.964 L 344.417 45.750 352.398 45.793 C 361.140 45.841,360.833 45.876,360.833 44.819 L 360.833 44.179 362.458 44.131 L 364.083 44.083 364.135 41.333 C 364.226 36.456,364.093 36.000,362.578 36.000 C 361.542 36.000,361.000 36.409,361.000 37.192 L 361.000 37.655 359.375 37.702 L 357.750 37.750 357.699 38.542 L 357.648 39.333 353.417 39.333 L 349.185 39.333 349.134 38.542 L 349.083 37.750 348.292 37.699 C 347.583 37.654,347.500 37.607,347.500 37.252 C 347.500 36.350,347.221 36.000,346.504 36.000 L 345.833 36.000 345.833 34.250 L 345.833 32.500 356.375 32.497 C 362.703 32.496,367.017 32.432,367.167 32.337 C 367.349 32.223,367.439 31.758,367.500 30.632 L 367.583 29.083 368.113 29.032 C 368.885 28.957,369.015 28.689,369.119 26.956 C 369.303 23.877,368.984 22.667,367.988 22.667 L 367.500 22.667 367.498 20.542 C 367.495 17.718,367.478 17.667,366.564 17.667 L 365.833 17.667 365.833 16.833 L 365.833 16.000 365.009 16.000 L 364.185 16.000 364.134 15.208 L 364.083 14.417 362.458 14.369 L 360.833 14.321 360.833 13.758 C 360.833 12.601,361.136 12.667,355.816 12.667 L 351.000 12.667 351.000 13.496 M386.111 12.778 C 386.050 12.839,386.000 13.211,386.000 13.605 L 386.000 14.321 384.375 14.369 L 382.750 14.417 382.651 15.250 L 382.552 16.083 382.526 15.208 L 382.500 14.333 379.250 14.333 L 376.000 14.333 376.000 15.167 L 376.000 16.000 375.430 16.000 C 374.276 16.000,374.333 15.776,374.333 20.268 L 374.333 24.333 373.764 24.333 C 372.609 24.333,372.667 24.110,372.667 28.601 L 372.667 32.667 372.097 32.667 C 370.942 32.667,371.000 32.443,371.000 36.934 L 371.000 41.000 370.506 41.000 C 369.549 41.000,369.333 41.482,369.333 43.619 C 369.333 45.973,369.061 45.833,373.644 45.833 C 377.841 45.833,377.500 46.072,377.500 43.133 L 377.500 40.833 378.071 40.833 C 379.147 40.833,379.167 40.753,379.167 36.405 L 379.167 32.500 379.708 32.497 C 380.707 32.493,380.742 32.408,380.833 29.798 L 380.917 27.417 381.446 27.365 C 382.195 27.293,382.327 27.050,382.445 25.520 L 382.549 24.167 383.096 24.167 C 383.799 24.167,384.167 23.790,384.167 23.071 C 384.167 22.521,384.190 22.500,384.800 22.500 C 385.598 22.500,385.833 22.265,385.833 21.470 L 385.833 20.839 389.958 20.795 L 394.083 20.750 394.167 19.917 C 394.246 19.123,394.275 19.081,394.779 19.032 C 395.070 19.004,395.404 18.866,395.521 18.725 C 395.802 18.386,395.938 13.772,395.687 13.125 L 395.508 12.667 390.865 12.667 C 388.312 12.667,386.172 12.717,386.111 12.778 M104.287 17.205 C 104.250 17.505,104.219 17.300,104.218 16.750 C 104.217 16.200,104.248 15.955,104.286 16.205 C 104.324 16.456,104.325 16.906,104.287 17.205 M356.437 20.675 C 356.667 20.762,357.409 20.833,358.085 20.833 L 359.315 20.833 359.366 21.625 L 359.417 22.417 360.208 22.467 L 361.000 22.518 361.000 24.259 L 361.000 26.000 354.250 26.000 L 347.500 26.000 347.500 25.092 L 347.500 24.185 348.292 24.134 L 349.083 24.083 349.134 23.300 L 349.184 22.518 349.967 22.467 L 350.750 22.417 350.800 21.647 L 350.850 20.877 353.000 20.799 C 355.331 20.715,355.667 20.595,355.667 19.841 C 355.667 19.095,355.913 19.082,355.968 19.826 C 356.010 20.385,356.099 20.546,356.437 20.675 M50.833 28.042 C 50.833 28.157,51.058 28.463,51.333 28.722 L 51.832 29.194 51.333 29.693 C 50.560 30.465,50.642 30.860,51.485 30.425 C 52.688 29.802,52.391 27.833,51.094 27.833 C 50.951 27.833,50.833 27.927,50.833 28.042 M135.250 30.985 L 134.417 31.083 134.369 32.699 L 134.321 34.316 133.536 34.366 L 132.750 34.417 132.700 35.200 L 132.649 35.982 131.866 36.033 L 131.083 36.083 131.033 36.859 L 130.983 37.634 129.505 37.692 C 127.811 37.758,127.836 37.745,127.713 38.661 L 127.621 39.349 126.688 39.299 L 125.754 39.250 125.653 38.623 C 125.528 37.848,125.485 37.806,124.713 37.680 C 124.142 37.587,124.079 37.523,123.984 36.939 C 123.868 36.222,123.631 36.006,122.958 36.003 C 122.514 36.000,122.500 35.972,122.500 35.083 L 122.500 34.167 123.071 34.167 C 123.798 34.167,124.167 33.798,124.167 33.071 C 124.167 32.521,124.190 32.500,124.800 32.500 C 125.598 32.500,125.833 32.265,125.833 31.467 L 125.833 30.833 130.958 30.860 C 133.777 30.874,135.708 30.930,135.250 30.985 M265.208 30.956 L 264.333 31.017 264.333 32.675 L 264.333 34.333 263.500 34.333 L 262.667 34.333 262.667 35.158 L 262.667 35.982 261.875 36.033 L 261.083 36.083 261.033 36.875 L 260.982 37.667 260.158 37.667 L 259.333 37.667 259.333 38.500 L 259.333 39.333 256.759 39.333 L 254.185 39.333 254.134 38.542 L 254.083 37.750 253.292 37.699 L 252.500 37.648 252.500 35.908 L 252.500 34.167 253.071 34.167 C 253.790 34.167,254.167 33.799,254.167 33.096 L 254.167 32.549 255.520 32.445 C 257.025 32.329,257.333 32.170,257.333 31.507 C 257.333 30.822,257.268 30.831,261.819 30.864 C 264.165 30.881,265.690 30.923,265.208 30.956 M6.689 40.821 C 6.747 40.828,6.833 40.982,6.881 41.164 C 6.957 41.455,6.925 41.472,6.609 41.306 L 6.250 41.118 6.583 41.499 L 6.917 41.881 6.546 41.653 C 6.218 41.451,6.145 41.463,5.918 41.754 C 5.744 41.978,5.676 42.003,5.706 41.833 C 5.731 41.693,5.627 41.582,5.470 41.581 C 5.316 41.580,5.129 41.512,5.053 41.429 C 4.975 41.344,5.006 41.331,5.125 41.400 C 5.240 41.466,5.333 41.445,5.333 41.353 C 5.333 41.261,5.240 41.126,5.125 41.053 C 4.910 40.914,5.845 40.696,6.333 40.770 C 6.471 40.791,6.631 40.814,6.689 40.821 M7.692 43.030 C 7.664 43.529,8.045 44.002,8.470 43.996 C 8.667 43.992,8.616 43.908,8.299 43.712 C 8.052 43.558,7.819 43.241,7.783 43.008 L 7.717 42.583 7.692 43.030 M37.500 47.989 C 37.500 48.074,37.652 48.192,37.838 48.251 C 38.308 48.401,38.701 49.049,38.555 49.435 C 38.064 50.730,35.260 50.859,34.604 49.615 L 34.324 49.083 34.413 49.651 C 34.558 50.576,34.725 50.667,36.279 50.667 C 38.407 50.667,39.353 49.922,38.831 48.660 C 38.558 48.003,37.500 47.469,37.500 47.989 M32.389 52.167 C 32.389 52.854,32.419 53.135,32.455 52.792 C 32.491 52.448,32.491 51.885,32.455 51.542 C 32.419 51.198,32.389 51.479,32.389 52.167 " stroke="none" fill="#040404" fill-rule="evenodd"></path><path id="path4" d="M14.750 6.366 C 14.567 6.470,14.379 6.599,14.333 6.652 C 14.287 6.706,13.912 6.864,13.500 7.003 L 12.750 7.256 12.796 8.253 C 12.842 9.226,13.383 10.628,14.000 11.371 C 14.359 11.804,14.443 12.451,14.278 13.500 C 14.075 14.784,14.090 16.081,14.320 17.246 C 14.607 18.700,14.502 29.194,14.199 29.295 C 13.915 29.389,13.167 30.200,13.167 30.413 C 13.167 32.747,11.018 33.289,3.958 32.732 L 2.667 32.630 2.667 33.048 L 2.667 33.466 4.875 33.583 C 6.090 33.648,8.222 33.674,9.613 33.642 C 12.774 33.569,12.837 33.534,13.819 31.333 C 14.003 30.921,14.401 30.295,14.702 29.943 L 15.250 29.302 15.186 23.109 C 15.060 11.001,15.011 9.789,14.632 9.410 C 14.504 9.282,15.293 7.128,15.518 6.989 C 16.092 6.634,20.161 6.662,20.869 7.026 C 21.430 7.313,21.489 8.300,21.496 17.525 C 21.502 25.169,21.543 26.746,21.752 27.339 C 21.979 27.983,22.539 28.667,22.839 28.667 C 23.314 28.667,23.652 32.653,23.291 34.000 C 23.039 34.940,22.190 34.924,21.314 33.963 C 20.665 33.250,19.009 34.133,18.317 35.560 C 17.866 36.492,16.192 38.333,15.797 38.333 C 15.718 38.333,15.326 38.671,14.925 39.083 C 14.524 39.496,14.121 39.833,14.028 39.833 C 13.717 39.833,12.833 40.414,12.749 40.674 C 12.702 40.820,12.047 41.141,11.233 41.417 C 8.811 42.240,8.625 42.616,10.834 42.222 C 12.587 41.910,13.286 41.619,13.521 41.103 C 13.622 40.883,13.901 40.613,14.143 40.502 C 14.385 40.392,14.771 40.212,15.000 40.103 C 15.229 39.994,15.515 39.701,15.634 39.452 C 15.754 39.204,15.980 39.000,16.137 39.000 C 17.057 39.000,19.000 36.919,19.000 35.933 C 19.000 35.390,20.682 34.961,21.417 35.317 C 21.692 35.450,22.141 35.605,22.415 35.661 C 22.689 35.717,22.995 35.926,23.094 36.126 C 23.259 36.457,23.308 36.396,23.639 35.453 C 24.281 33.627,24.155 28.997,23.402 26.687 C 23.348 26.520,23.217 26.577,22.924 26.893 L 22.521 27.328 22.394 26.956 C 22.325 26.751,22.257 24.371,22.244 21.667 C 22.232 18.962,22.203 14.613,22.182 12.000 C 22.160 9.387,22.190 7.127,22.249 6.976 C 22.319 6.797,22.223 6.608,21.974 6.434 C 21.500 6.102,15.319 6.043,14.750 6.366 M31.629 6.583 C 31.160 7.052,30.898 8.332,31.168 8.836 C 31.520 9.494,31.297 19.592,30.922 19.967 C 30.878 20.011,30.696 19.868,30.519 19.649 C 29.788 18.748,29.656 19.841,29.551 27.647 C 29.441 35.898,29.501 36.241,30.932 35.438 C 31.344 35.207,31.726 34.802,31.969 34.336 C 32.182 33.931,32.489 33.506,32.651 33.392 C 32.814 33.278,33.240 32.759,33.598 32.239 L 34.250 31.293 34.603 32.425 C 34.846 33.203,35.113 33.690,35.459 33.986 C 35.735 34.223,36.047 34.679,36.153 35.000 C 36.407 35.773,37.118 36.833,37.382 36.833 C 37.607 36.833,37.859 37.093,38.472 37.958 C 38.683 38.256,38.945 38.504,39.053 38.510 C 39.161 38.515,39.483 38.684,39.767 38.885 C 40.052 39.086,40.587 39.461,40.956 39.718 C 41.718 40.248,43.870 40.834,45.000 40.820 C 45.798 40.809,45.511 40.536,44.677 40.512 C 44.454 40.505,44.117 40.360,43.927 40.189 C 43.738 40.018,43.227 39.745,42.792 39.583 C 42.356 39.421,42.000 39.223,42.000 39.144 C 42.000 39.065,41.644 38.824,41.208 38.607 C 39.756 37.886,39.578 37.756,38.468 36.618 C 37.488 35.613,36.833 34.652,36.833 34.218 C 36.833 34.136,36.501 33.744,36.096 33.346 C 35.488 32.749,35.339 32.478,35.246 31.804 C 35.035 30.267,34.111 29.647,33.575 30.683 C 33.440 30.944,33.011 31.488,32.623 31.890 C 32.234 32.293,31.692 33.006,31.417 33.475 C 30.817 34.497,30.789 34.503,30.394 33.708 C 29.798 32.510,30.113 27.118,30.829 26.256 C 30.913 26.154,31.101 25.248,31.246 24.243 C 31.392 23.239,31.591 21.929,31.689 21.333 C 31.787 20.737,31.924 17.475,31.994 14.083 C 32.153 6.312,31.948 6.734,35.546 6.769 C 38.490 6.798,38.168 5.371,38.149 18.317 C 38.131 31.232,38.069 30.839,40.317 32.099 C 40.628 32.274,41.135 32.673,41.443 32.985 C 42.440 33.998,46.323 34.134,47.153 33.185 C 47.298 33.019,47.698 32.831,48.042 32.768 C 48.652 32.654,48.667 32.634,48.667 31.917 C 48.667 30.674,48.908 30.357,49.898 30.300 L 50.750 30.250 50.800 29.376 L 50.851 28.502 50.414 28.667 C 50.175 28.759,49.801 28.833,49.585 28.833 C 49.180 28.833,48.429 29.600,47.981 30.469 C 47.854 30.715,47.618 31.015,47.456 31.136 C 47.294 31.257,47.013 31.648,46.831 32.005 C 46.360 32.928,46.012 33.063,44.427 32.943 C 42.741 32.814,42.369 32.708,42.247 32.323 C 42.193 32.154,41.759 31.821,41.283 31.583 C 39.957 30.921,38.958 29.681,38.812 28.517 C 38.627 27.041,38.647 11.512,38.835 10.054 C 39.163 7.521,39.123 7.631,39.676 7.752 C 39.983 7.819,40.167 7.792,40.167 7.680 C 40.167 7.581,40.110 7.500,40.042 7.500 C 39.973 7.500,39.579 7.200,39.167 6.833 L 38.417 6.167 35.231 6.167 C 32.055 6.167,32.044 6.168,31.629 6.583 M44.167 10.131 C 44.167 10.328,45.116 11.167,45.339 11.167 C 45.419 11.167,45.314 10.998,45.106 10.792 C 44.473 10.165,44.167 9.950,44.167 10.131 M7.963 42.759 C 8.167 42.902,8.333 43.127,8.333 43.259 C 8.333 43.392,8.421 43.500,8.528 43.500 C 8.635 43.500,8.667 43.555,8.600 43.623 C 8.532 43.690,8.334 43.559,8.159 43.331 C 7.940 43.045,7.840 42.996,7.837 43.172 C 7.833 43.482,8.762 44.063,9.071 43.944 C 9.192 43.898,9.292 43.658,9.292 43.412 C 9.292 43.166,9.245 43.031,9.188 43.113 C 9.130 43.194,8.996 43.259,8.889 43.256 C 8.610 43.248,8.399 43.000,8.671 43.000 C 8.817 43.000,8.783 42.914,8.574 42.755 C 8.396 42.621,8.102 42.508,7.921 42.505 C 7.613 42.500,7.615 42.516,7.963 42.759 M37.314 47.764 C 37.303 47.940,37.307 48.151,37.322 48.235 C 37.338 48.318,37.253 48.448,37.134 48.524 C 36.967 48.629,36.965 48.662,37.125 48.664 C 37.240 48.666,37.333 48.739,37.333 48.828 C 37.333 48.917,37.205 48.940,37.047 48.880 C 36.793 48.782,36.789 48.800,37.005 49.033 C 37.153 49.192,37.291 49.231,37.354 49.130 C 37.420 49.026,37.495 49.023,37.557 49.125 C 37.612 49.213,37.471 49.369,37.245 49.472 C 37.018 49.575,36.833 49.741,36.833 49.841 C 36.833 49.944,36.695 49.979,36.514 49.921 C 36.338 49.865,36.156 49.882,36.109 49.959 C 36.061 50.036,36.208 50.095,36.434 50.091 C 36.660 50.087,36.909 49.980,36.987 49.854 C 37.066 49.727,37.203 49.669,37.292 49.725 C 37.382 49.780,37.581 49.687,37.735 49.517 C 37.957 49.271,37.969 49.190,37.791 49.122 C 37.662 49.073,37.549 48.731,37.525 48.315 C 37.480 47.560,37.348 47.214,37.314 47.764 M33.500 49.371 C 33.500 49.453,33.406 49.472,33.292 49.414 C 33.177 49.356,33.233 49.432,33.417 49.584 L 33.750 49.859 33.417 49.805 C 33.163 49.763,33.096 49.830,33.138 50.083 L 33.193 50.417 32.917 50.083 C 32.766 49.900,32.685 49.837,32.739 49.944 C 32.792 50.051,32.748 50.167,32.641 50.203 C 32.533 50.239,32.427 50.396,32.404 50.551 C 32.381 50.707,32.432 50.792,32.517 50.739 C 32.602 50.687,32.626 50.568,32.569 50.476 C 32.512 50.384,32.620 50.405,32.809 50.523 C 33.241 50.793,34.010 50.167,33.962 49.586 C 33.934 49.247,33.500 49.045,33.500 49.371 M38.084 49.832 C 37.918 50.016,37.836 50.167,37.903 50.167 C 38.078 50.167,38.554 49.665,38.463 49.574 C 38.421 49.532,38.251 49.648,38.084 49.832 M22.838 51.244 C 22.726 51.379,22.674 51.585,22.721 51.703 C 22.774 51.834,22.812 51.799,22.820 51.615 C 22.828 51.431,22.908 51.360,23.026 51.433 C 23.140 51.503,23.173 51.479,23.107 51.372 C 23.046 51.273,23.128 51.157,23.290 51.115 C 23.535 51.051,23.539 51.035,23.312 51.019 C 23.163 51.009,22.950 51.110,22.838 51.244 " stroke="none" fill="#789c3c" fill-rule="evenodd"></path></g></svg>